<?xml version="1.0" encoding="UTF-8" standalone="no"?>
<!DOCTYPE svg PUBLIC "-//W3C//DTD SVG 1.1//EN"
"http://www.w3.org/Graphics/SVG/1.1/DTD/svg11.dtd">
<svg viewBox="0 0 1213 889" version="1.1" xmlns="http://www.w3.org/2000/svg" xmlns:xlink="http://www.w3.org/1999/xlink">
<defs>
<clipPath id="c0_5"><path d="M48.1,21.8L22.2,20.6L48.1,19.4v2.4Z" /></clipPath>
<clipPath id="c1_5"><path d="M47.5,26.6L22.1,20.9l25.8,3.3l-.4,2.4Z" /></clipPath>
<clipPath id="c2_5"><path d="M46,31.1L22.1,21.1l24.8,7.8L46,31.1Z" /></clipPath>
<clipPath id="c3_5"><path d="M43.8,35.4L21.9,21.4L45,33.3l-1.2,2.1Z" /></clipPath>
<clipPath id="c4_5"><path d="M40.9,39.2L21.8,21.6L42.4,37.4l-1.5,1.8Z" /></clipPath>
<clipPath id="c5_5"><path d="M37.4,42.4L21.6,21.8L39.2,40.9l-1.8,1.5Z" /></clipPath>
<clipPath id="c6_5"><path d="M33.3,45L21.4,21.9l14,21.9L33.3,45Z" /></clipPath>
<clipPath id="c7_5"><path d="M28.9,46.9L21.1,22.1L31.1,46l-2.2,.9Z" /></clipPath>
<clipPath id="c8_5"><path d="M24.2,47.9L20.9,22.1l5.7,25.4l-2.4,.4Z" /></clipPath>
<clipPath id="c9_5"><path d="M19.4,48.1L20.6,22.2l1.2,25.9Z" /></clipPath>
<clipPath id="c10_5"><path d="M17,47.9l-2.3,-.4L20.4,22.1L17,47.9Z" /></clipPath>
<clipPath id="c11_5"><path d="M12.4,46.9L10.1,46l10,-23.9L12.4,46.9Z" /></clipPath>
<clipPath id="c12_5"><path d="M7.9,45L5.8,43.8L19.9,21.9L7.9,45Z" /></clipPath>
<clipPath id="c13_5"><path d="M3.9,42.4L2,40.9L19.6,21.8L3.9,42.4Z" /></clipPath>
<clipPath id="c14_5"><path d="M.3,39.2L-1.1,37.4L19.5,21.6L.3,39.2Z" /></clipPath>
<clipPath id="c15_5"><path d="M-2.5,35.4L-3.7,33.3l23,-11.9l-21.8,14Z" /></clipPath>
<clipPath id="c16_5"><path d="M-4.7,31.1l-.8,-2.2L19.2,21.1l-23.9,10Z" /></clipPath>
<clipPath id="c17_5"><path d="M-6.1,26.6l-.4,-2.4L19.1,20.9L-6.1,26.6Z" /></clipPath>
<clipPath id="c18_5"><path d="M-6.7,21.8V19.4l25.8,1.2L-6.7,21.8Z" /></clipPath>
<clipPath id="c19_5"><path d="M19.1,20.4L-6.5,17l.4,-2.3l25.2,5.7Z" /></clipPath>
<clipPath id="c20_5"><path d="M19.2,20.1L-5.5,12.4l.8,-2.3l23.9,10Z" /></clipPath>
<clipPath id="c21_5"><path d="M19.3,19.9l-23,-12L-2.5,5.8L19.3,19.9Z" /></clipPath>
<clipPath id="c22_5"><path d="M19.5,19.6L-1.1,3.9L.3,2L19.5,19.6Z" /></clipPath>
<clipPath id="c23_5"><path d="M19.6,19.5L2,.3L3.9,-1.1L19.6,19.5Z" /></clipPath>
<clipPath id="c24_5"><path d="M19.9,19.3L5.8,-2.5L7.9,-3.7l12,23Z" /></clipPath>
<clipPath id="c25_5"><path d="M20.1,19.2L10.1,-4.7l2.3,-.8l7.7,24.7Z" /></clipPath>
<clipPath id="c26_5"><path d="M20.4,19.1L14.7,-6.1L17,-6.5l3.4,25.6Z" /></clipPath>
<clipPath id="c27_5"><path d="M20.6,19.1L19.4,-6.7h2.4L20.6,19.1Z" /></clipPath>
<clipPath id="c28_5"><path d="M20.9,19.1L24.2,-6.5l2.4,.4L20.9,19.1Z" /></clipPath>
<clipPath id="c29_5"><path d="M21.1,19.2L28.9,-5.5l2.2,.8l-10,23.9Z" /></clipPath>
<clipPath id="c30_5"><path d="M21.4,19.3l11.9,-23l2.1,1.2l-14,21.8Z" /></clipPath>
<clipPath id="c31_5"><path d="M21.6,19.5L37.4,-1.1L39.2,.3L21.6,19.5Z" /></clipPath>
<clipPath id="c32_5"><path d="M21.8,19.6L40.9,2l1.5,1.9L21.8,19.6Z" /></clipPath>
<clipPath id="c33_5"><path d="M21.9,19.9L43.8,5.8L45,7.9l-23.1,12Z" /></clipPath>
<clipPath id="c34_5"><path d="M22.1,20.1L46,10.1l.9,2.3L22.1,20.1Z" /></clipPath>
<clipPath id="c35_5"><path d="M22.1,20.4L47.5,14.7l.4,2.3L22.1,20.4Z" /></clipPath>
<clipPath id="c36_5"><path d="M1220.7,869.6l-26,-1.2l26,-1.2v2.4Z" /></clipPath>
<clipPath id="c37_5"><path d="M1220,874.4l-25.3,-5.7l25.8,3.3l-.5,2.4Z" /></clipPath>
<clipPath id="c38_5"><path d="M1218.6,878.9l-24,-10l24.8,7.8l-.8,2.2Z" /></clipPath>
<clipPath id="c39_5"><path d="M1216.4,883.2l-21.9,-14l23.1,11.9l-1.2,2.1Z" /></clipPath>
<clipPath id="c40_5"><path d="M1213.5,887l-19.1,-17.6l20.6,15.7l-1.5,1.9Z" /></clipPath>
<clipPath id="c41_5"><path d="M1209.9,890.2l-15.7,-20.6l17.6,19.1l-1.9,1.5Z" /></clipPath>
<clipPath id="c42_5"><path d="M1205.9,892.8L1194,869.7l14,21.9l-2.1,1.2Z" /></clipPath>
<clipPath id="c43_5"><path d="M1201.5,894.6l-7.8,-24.8l10,24l-2.2,.8Z" /></clipPath>
<clipPath id="c44_5"><path d="M1196.8,895.7l-3.3,-25.8l5.6,25.4l-2.3,.4Z" /></clipPath>
<clipPath id="c45_5"><path d="M1192,895.9l1.2,-26l1.2,26Z" /></clipPath>
<clipPath id="c46_5"><path d="M1189.6,895.7l-2.4,-.4l5.7,-25.4l-3.3,25.8Z" /></clipPath>
<clipPath id="c47_5"><path d="M1184.9,894.6l-2.2,-.8l10,-24l-7.8,24.8Z" /></clipPath>
<clipPath id="c48_5"><path d="M1180.5,892.8l-2.1,-1.2l14,-21.9l-11.9,23.1Z" /></clipPath>
<clipPath id="c49_5"><path d="M1176.5,890.2l-1.9,-1.5l17.6,-19.1l-15.7,20.6Z" /></clipPath>
<clipPath id="c50_5"><path d="M1172.9,887l-1.5,-1.9L1192,869.4L1172.9,887Z" /></clipPath>
<clipPath id="c51_5"><path d="M1170,883.2l-1.2,-2.1l23.1,-11.9l-21.9,14Z" /></clipPath>
<clipPath id="c52_5"><path d="M1167.8,878.9l-.8,-2.2l24.8,-7.8l-24,10Z" /></clipPath>
<clipPath id="c53_5"><path d="M1166.3,874.4l-.4,-2.4l25.8,-3.3l-25.4,5.7Z" /></clipPath>
<clipPath id="c54_5"><path d="M1165.7,869.6v-2.4l26,1.2l-26,1.2Z" /></clipPath>
<clipPath id="c55_5"><path d="M1191.7,868.1l-25.8,-3.3l.4,-2.3l25.4,5.6Z" /></clipPath>
<clipPath id="c56_5"><path d="M1191.8,867.9L1167,860.1l.8,-2.2l24,10Z" /></clipPath>
<clipPath id="c57_5"><path d="M1191.9,867.6l-23.1,-11.9l1.2,-2.1l21.9,14Z" /></clipPath>
<clipPath id="c58_5"><path d="M1192,867.4l-20.6,-15.7l1.5,-1.9l19.1,17.6Z" /></clipPath>
<clipPath id="c59_5"><path d="M1192.2,867.2l-17.6,-19.1l1.9,-1.5l15.7,20.6Z" /></clipPath>
<clipPath id="c60_5"><path d="M1192.4,867.1l-14,-21.9l2.1,-1.2l11.9,23.1Z" /></clipPath>
<clipPath id="c61_5"><path d="M1192.7,867l-10,-24l2.2,-.8l7.8,24.8Z" /></clipPath>
<clipPath id="c62_5"><path d="M1192.9,866.9l-5.7,-25.3l2.4,-.5l3.3,25.8Z" /></clipPath>
<clipPath id="c63_5"><path d="M1193.2,866.9l-1.2,-26h2.4l-1.2,26Z" /></clipPath>
<clipPath id="c64_5"><path d="M1193.5,866.9l3.3,-25.8l2.3,.5l-5.6,25.3Z" /></clipPath>
<clipPath id="c65_5"><path d="M1193.7,867l7.8,-24.8l2.2,.8l-10,24Z" /></clipPath>
<clipPath id="c66_5"><path d="M1194,867.1L1205.9,844l2.1,1.2l-14,21.9Z" /></clipPath>
<clipPath id="c67_5"><path d="M1194.2,867.2l15.7,-20.6l1.9,1.5l-17.6,19.1Z" /></clipPath>
<clipPath id="c68_5"><path d="M1194.4,867.4l19.1,-17.6l1.5,1.9l-20.6,15.7Z" /></clipPath>
<clipPath id="c69_5"><path d="M1194.5,867.6l21.9,-14l1.2,2.1l-23.1,11.9Z" /></clipPath>
<clipPath id="c70_5"><path d="M1194.6,867.9l24,-10l.8,2.2l-24.8,7.8Z" /></clipPath>
<clipPath id="c71_5"><path d="M1194.7,868.1l25.3,-5.6l.5,2.3l-25.8,3.3Z" /></clipPath>
<style type="text/css"><![CDATA[
.g0_5{
fill: #F7F5F1;
}
.g1_5{
fill: #969698;
}
.g2_5{
fill: #5A5758;
}
.g3_5{
fill: #D23652;
}
.g4_5{
fill: none;
stroke: #D23652;
stroke-width: 0.38194445;
stroke-linecap: butt;
stroke-linejoin: miter;
}
.g5_5{
fill: #D23652;
stroke: #D23652;
stroke-width: 0.38194445;
stroke-linecap: butt;
stroke-linejoin: miter;
}
.g6_5{
fill: none;
stroke: #FFFFFF;
stroke-width: 1.9097222;
stroke-linecap: butt;
stroke-linejoin: miter;
}
.g7_5{
fill: none;
stroke: #241F1F;
stroke-width: 0.38194445;
stroke-linecap: butt;
stroke-linejoin: miter;
}
.g8_5{
fill: #241F1F;
}
.g9_5{
fill: none;
stroke: #FFFFFF;
stroke-width: 0.38194445;
stroke-linecap: butt;
stroke-linejoin: miter;
}
.g10_5{
fill: #FFFFFF;
}
.g11_5{
fill: none;
stroke: #241F1F;
stroke-width: 0.45833334;
stroke-linecap: butt;
stroke-linejoin: miter;
}
]]></style>
</defs>
<path d="M37.4,851.6h1139V37.4H37.4V851.6Z" class="g0_5" />
<path d="M37.4,308.8H417.1V37.4H37.4V308.8Z" class="g1_5" />
<path d="M37.4,580.2H417.1V308.8H37.4V580.2Z" class="g2_5" />
<path d="M796.7,308.8h379.7V37.4H796.7V308.8Z" class="g1_5" />
<path d="M796.7,580.2h379.7V308.8H796.7V580.2Z" class="g2_5" />
<path d="M37.4,851.6H417.1V580.2H37.4V851.6Z" class="g1_5" />
<path d="M417.1,851.6H796.7V580.2H417.1V851.6Z" class="g2_5" />
<path d="M417.1,308.8H796.7V37.4H417.1V308.8Z" class="g2_5" />
<path d="M796.7,851.6h379.7V580.2H796.7V851.6Z" class="g1_5" />
<path d="M496.6,470.1h1.5V455.4h-1.5v14.7Z" class="g3_5" />
<path d="M496.6,455.4h1.5v14.7h-1.5V455.4Z" class="g4_5" />
<path d="M508.8,460.4l-.9,.9c-.8,-.7,-1.5,-1.1,-2.2,-1.1c-.5,0,-.9,.2,-1.2,.5c-.3,.3,-.5,.6,-.5,1c0,.4,.2,.7,.4,1c.3,.4,.9,.7,1.7,1.2c1.1,.5,1.8,1,2.1,1.5c.4,.6,.6,1.1,.6,1.8c0,.9,-.3,1.6,-.9,2.2c-.7,.7,-1.5,1,-2.4,1c-.6,0,-1.2,-.2,-1.8,-.4c-.6,-.3,-1,-.7,-1.4,-1.2l.9,-1c.7,.8,1.4,1.2,2.2,1.2c.6,0,1.1,-.1,1.5,-.5c.4,-.4,.6,-.8,.6,-1.3c0,-.4,-.2,-.7,-.4,-1c-.3,-.4,-.9,-.7,-1.8,-1.2c-1,-.5,-1.6,-1,-2,-1.5c-.3,-.5,-.5,-1.1,-.5,-1.7c0,-.8,.3,-1.5,.8,-2.1c.6,-.5,1.3,-.8,2.2,-.8c1,0,2,.5,3,1.5Z" class="g3_5" />
<path d="M508.8,460.4l-.9,.9c-.8,-.7,-1.5,-1.1,-2.2,-1.1c-.5,0,-.9,.2,-1.2,.5c-.3,.3,-.5,.6,-.5,1c0,.4,.2,.7,.4,1c.3,.4,.9,.7,1.7,1.2c1.1,.5,1.8,1,2.1,1.5c.4,.6,.6,1.1,.6,1.8c0,.9,-.3,1.6,-.9,2.2c-.7,.7,-1.5,1,-2.4,1c-.6,0,-1.2,-.2,-1.8,-.4c-.6,-.3,-1,-.7,-1.4,-1.2l.9,-1c.7,.8,1.4,1.2,2.2,1.2c.6,0,1.1,-.1,1.5,-.5c.4,-.4,.6,-.8,.6,-1.3c0,-.4,-.2,-.7,-.4,-1c-.3,-.4,-.9,-.7,-1.8,-1.2c-1,-.5,-1.6,-1,-2,-1.5c-.3,-.5,-.5,-1.1,-.5,-1.7c0,-.8,.3,-1.5,.8,-2.1c.6,-.5,1.3,-.8,2.2,-.8c1,0,2,.5,3,1.5Z" class="g4_5" />
<path d="M520.8,459.2h1.4v10.9h-1.4V459.2Zm.7,-4.5c.4,0,.6,.1,.9,.3c.2,.3,.3,.5,.3,.9c0,.3,-.1,.6,-.3,.8c-.3,.2,-.5,.3,-.9,.3c-.3,0,-.5,-.1,-.8,-.3c-.2,-.2,-.3,-.5,-.3,-.8c0,-.4,.1,-.6,.3,-.9c.3,-.2,.5,-.3,.8,-.3Z" class="g3_5" />
<path d="M520.8,459.2h1.4v10.9h-1.4V459.2Zm.7,-4.5c.4,0,.6,.1,.9,.3c.2,.3,.3,.5,.3,.9c0,.3,-.1,.6,-.3,.8c-.3,.2,-.5,.3,-.9,.3c-.3,0,-.5,-.1,-.8,-.3c-.2,-.2,-.3,-.5,-.3,-.8c0,-.4,.1,-.6,.3,-.9c.3,-.2,.5,-.3,.8,-.3Z" class="g4_5" />
<path d="M528.4,455.1h1.4v4.1h2.3v1.2h-2.3v9.7h-1.4v-9.7h-1.9v-1.2h1.9Z" class="g3_5" />
<path d="M528.4,455.1h1.4v4.1h2.3v1.2h-2.3v9.7h-1.4v-9.7h-1.9v-1.2h1.9v-4.1Z" class="g4_5" />
<path d="M548.4,455v1.4c-.5,-.3,-.9,-.4,-1.3,-.4c-.3,0,-.5,.1,-.7,.2c-.2,.1,-.3,.2,-.3,.4c-.1,.1,-.1,.5,-.1,1.1v1.5h2.3v1.2H546v9.7h-1.4v-9.7h-1.4v-1.2h1.4v-1.7c0,-.8,.1,-1.3,.2,-1.7c.1,-.3,.4,-.6,.7,-.8c.4,-.2,.8,-.3,1.3,-.3c.4,0,1,.1,1.6,.3Z" class="g3_5" />
<path d="M548.4,455v1.4c-.5,-.3,-.9,-.4,-1.3,-.4c-.3,0,-.5,.1,-.7,.2c-.2,.1,-.3,.2,-.3,.4c-.1,.1,-.1,.5,-.1,1.1v1.5h2.3v1.2H546v9.7h-1.4v-9.7h-1.4v-1.2h1.4v-1.7c0,-.8,.1,-1.3,.2,-1.7c.1,-.3,.4,-.6,.7,-.8c.4,-.2,.8,-.3,1.3,-.3c.4,0,1,.1,1.6,.3Z" class="g4_5" />
<path d="M552.2,459.2h1.4v5.1c0,1.2,.1,2.1,.2,2.5c.2,.7,.6,1.2,1.2,1.6c.6,.4,1.2,.6,2,.6c.8,0,1.5,-.2,2,-.6c.5,-.3,.9,-.8,1.1,-1.5c.2,-.4,.2,-1.3,.2,-2.6v-5.1h1.5v5.3c0,1.5,-.2,2.7,-.6,3.4c-.3,.8,-.8,1.4,-1.5,1.8c-.7,.4,-1.6,.7,-2.7,.7c-1,0,-1.9,-.3,-2.6,-.7c-.8,-.4,-1.3,-1,-1.6,-1.8c-.4,-.8,-.6,-1.9,-.6,-3.5Z" class="g3_5" />
<path d="M552.2,459.2h1.4v5.1c0,1.2,.1,2.1,.2,2.5c.2,.7,.6,1.2,1.2,1.6c.6,.4,1.2,.6,2,.6c.8,0,1.5,-.2,2,-.6c.5,-.3,.9,-.8,1.1,-1.5c.2,-.4,.2,-1.3,.2,-2.6v-5.1h1.5v5.3c0,1.5,-.2,2.7,-.6,3.4c-.3,.8,-.8,1.4,-1.5,1.8c-.7,.4,-1.6,.7,-2.7,.7c-1,0,-1.9,-.3,-2.6,-.7c-.8,-.4,-1.3,-1,-1.6,-1.8c-.4,-.8,-.6,-1.9,-.6,-3.5v-5.2Z" class="g4_5" />
<path d="M566.7,455h1.4v15.1h-1.4V455Z" class="g5_5" />
<path d="M572.9,455h1.4v15.1h-1.4V455Z" class="g5_5" />
<path d="M592.1,460.3c-1.1,0,-2.1,.4,-3,1.3c-.8,.8,-1.2,1.9,-1.2,3.1c0,.8,.1,1.5,.5,2.2c.4,.7,.9,1.2,1.6,1.6c.6,.3,1.3,.5,2.1,.5c.8,0,1.5,-.2,2.2,-.5c.6,-.4,1.1,-.9,1.5,-1.6c.4,-.7,.6,-1.4,.6,-2.2c0,-1.2,-.4,-2.3,-1.3,-3.1c-.8,-.9,-1.8,-1.3,-3,-1.3m0,-1.4c1.7,0,3.1,.6,4.2,1.8c1,1.1,1.5,2.5,1.5,4c0,1.5,-.5,2.8,-1.6,4c-1.1,1.1,-2.4,1.7,-4.1,1.7c-1.6,0,-3,-.6,-4.1,-1.7c-1,-1.2,-1.6,-2.5,-1.6,-4c0,-1.5,.5,-2.8,1.5,-4c1.1,-1.2,2.5,-1.8,4.2,-1.8Z" class="g3_5" />
<path d="M592.1,460.3c-1.1,0,-2.1,.4,-3,1.3c-.8,.8,-1.2,1.9,-1.2,3.1c0,.8,.1,1.5,.5,2.2c.4,.7,.9,1.2,1.6,1.6c.6,.3,1.3,.5,2.1,.5c.8,0,1.5,-.2,2.2,-.5c.6,-.4,1.1,-.9,1.5,-1.6c.4,-.7,.6,-1.4,.6,-2.2c0,-1.2,-.4,-2.3,-1.3,-3.1c-.8,-.9,-1.8,-1.3,-3,-1.3Zm0,-1.4c1.7,0,3.1,.6,4.2,1.8c1,1.1,1.5,2.5,1.5,4c0,1.5,-.5,2.8,-1.6,4c-1.1,1.1,-2.4,1.7,-4.1,1.7c-1.6,0,-3,-.6,-4.1,-1.7c-1,-1.2,-1.6,-2.5,-1.6,-4c0,-1.5,.5,-2.8,1.5,-4c1.1,-1.2,2.5,-1.8,4.2,-1.8Z" class="g4_5" />
<path d="M606.9,455v1.4c-.5,-.3,-.9,-.4,-1.3,-.4c-.3,0,-.5,.1,-.7,.2c-.2,.1,-.3,.2,-.3,.4c-.1,.1,-.1,.5,-.1,1.1v1.5h2.3v1.2h-2.3v9.7h-1.4v-9.7h-1.4v-1.2h1.4v-1.7c0,-.8,.1,-1.3,.2,-1.7c.2,-.3,.4,-.6,.8,-.8c.3,-.2,.7,-.3,1.2,-.3c.5,0,1,.1,1.6,.3Z" class="g3_5" />
<path d="M606.9,455v1.4c-.5,-.3,-.9,-.4,-1.3,-.4c-.3,0,-.5,.1,-.7,.2c-.2,.1,-.3,.2,-.3,.4c-.1,.1,-.1,.5,-.1,1.1v1.5h2.3v1.2h-2.3v9.7h-1.4v-9.7h-1.4v-1.2h1.4v-1.7c0,-.8,.1,-1.3,.2,-1.7c.2,-.3,.4,-.6,.8,-.8c.3,-.2,.7,-.3,1.2,-.3c.5,0,1,.1,1.6,.3Z" class="g4_5" />
<path d="M619.9,455.1h1.4v4.1h2.2v1.2h-2.2v9.7h-1.4v-9.7H618v-1.2h1.9Z" class="g3_5" />
<path d="M619.9,455.1h1.4v4.1h2.2v1.2h-2.2v9.7h-1.4v-9.7H618v-1.2h1.9v-4.1Z" class="g4_5" />
<path d="M627.1,459.2h1.5v1.6c.4,-.6,.8,-1.1,1.3,-1.4c.5,-.3,1,-.5,1.5,-.5c.4,0,.8,.1,1.2,.4l-.7,1.2c-.3,-.2,-.5,-.2,-.7,-.2c-.5,0,-1,.2,-1.4,.5c-.4,.4,-.8,1,-1,1.8c-.2,.7,-.2,1.9,-.2,3.8v3.7h-1.5Z" class="g3_5" />
<path d="M627.1,459.2h1.5v1.6c.4,-.6,.8,-1.1,1.3,-1.4c.5,-.3,1,-.5,1.5,-.5c.4,0,.8,.1,1.2,.4l-.7,1.2c-.3,-.2,-.5,-.2,-.7,-.2c-.5,0,-1,.2,-1.4,.5c-.4,.4,-.8,1,-1,1.8c-.2,.7,-.2,1.9,-.2,3.8v3.7h-1.5V459.2Z" class="g4_5" />
<path d="M635.7,459.2h1.4v5.1c0,1.2,.1,2.1,.2,2.5c.2,.7,.6,1.2,1.1,1.6c.6,.4,1.3,.6,2.1,.6c.7,0,1.4,-.2,2,-.6c.5,-.3,.9,-.8,1.1,-1.5c.1,-.4,.2,-1.3,.2,-2.6v-5.1h1.4v5.3c0,1.5,-.2,2.7,-.5,3.4c-.4,.8,-.9,1.4,-1.6,1.8c-.7,.4,-1.6,.7,-2.6,.7c-1.1,0,-2,-.3,-2.7,-.7c-.7,-.4,-1.2,-1,-1.6,-1.8c-.3,-.8,-.5,-1.9,-.5,-3.5Z" class="g3_5" />
<path d="M635.7,459.2h1.4v5.1c0,1.2,.1,2.1,.2,2.5c.2,.7,.6,1.2,1.1,1.6c.6,.4,1.3,.6,2.1,.6c.7,0,1.4,-.2,2,-.6c.5,-.3,.9,-.8,1.1,-1.5c.1,-.4,.2,-1.3,.2,-2.6v-5.1h1.4v5.3c0,1.5,-.2,2.7,-.5,3.4c-.4,.8,-.9,1.4,-1.6,1.8c-.7,.4,-1.6,.7,-2.6,.7c-1.1,0,-2,-.3,-2.7,-.7c-.7,-.4,-1.2,-1,-1.6,-1.8c-.3,-.8,-.5,-1.9,-.5,-3.5v-5.2Z" class="g4_5" />
<path d="M659.6,463.5c-.2,-.7,-.5,-1.3,-.9,-1.8c-.3,-.4,-.8,-.8,-1.4,-1c-.6,-.3,-1.2,-.4,-1.8,-.4c-1.1,0,-2,.3,-2.8,1c-.6,.5,-1,1.2,-1.3,2.2Zm0,3l1.1,.6c-.3,.8,-.8,1.4,-1.3,1.8c-.5,.5,-1.1,.9,-1.7,1.1c-.7,.2,-1.4,.4,-2.2,.4c-1.8,0,-3.1,-.6,-4.1,-1.8c-1,-1.1,-1.5,-2.5,-1.5,-3.9c0,-1.4,.4,-2.6,1.2,-3.7c1.1,-1.4,2.5,-2.1,4.3,-2.1c1.9,0,3.4,.7,4.5,2.1c.8,1,1.2,2.3,1.2,3.7h-9.8c0,1.3,.4,2.4,1.2,3.2c.8,.8,1.8,1.2,2.9,1.2c.6,0,1.1,-.1,1.6,-.3c.6,-.2,1,-.5,1.4,-.8c.3,-.3,.7,-.8,1.2,-1.5Z" class="g3_5" />
<path d="M659.6,463.5c-.2,-.7,-.5,-1.3,-.9,-1.8c-.3,-.4,-.8,-.8,-1.4,-1c-.6,-.3,-1.2,-.4,-1.8,-.4c-1.1,0,-2,.3,-2.8,1c-.6,.5,-1,1.2,-1.3,2.2h8.2Zm0,3l1.1,.6c-.3,.8,-.8,1.4,-1.3,1.8c-.5,.5,-1.1,.9,-1.7,1.1c-.7,.2,-1.4,.4,-2.2,.4c-1.8,0,-3.1,-.6,-4.1,-1.8c-1,-1.1,-1.5,-2.5,-1.5,-3.9c0,-1.4,.4,-2.6,1.2,-3.7c1.1,-1.4,2.5,-2.1,4.3,-2.1c1.9,0,3.4,.7,4.5,2.1c.8,1,1.2,2.3,1.2,3.7h-9.8c0,1.3,.4,2.4,1.2,3.2c.8,.8,1.8,1.2,2.9,1.2c.6,0,1.1,-.1,1.6,-.3c.6,-.2,1,-.5,1.4,-.8c.3,-.3,.7,-.8,1.2,-1.5Z" class="g4_5" />
<path d="M674.9,467.4l1.3,.6l-2,3.8l-1,-.4Z" class="g3_5" />
<path d="M674.9,467.4l1.3,.6l-2,3.8l-1,-.4l1.7,-4Z" class="g4_5" />
<path d="M694.1,460.3c-1.2,0,-2.2,.4,-3,1.3c-.8,.8,-1.3,1.9,-1.3,3.1c0,.8,.2,1.5,.6,2.2c.4,.7,.9,1.2,1.6,1.6c.6,.3,1.3,.5,2.1,.5c.8,0,1.5,-.2,2.1,-.5c.7,-.4,1.2,-.9,1.6,-1.6c.4,-.7,.6,-1.4,.6,-2.2c0,-1.2,-.5,-2.3,-1.3,-3.1c-.8,-.9,-1.8,-1.3,-3,-1.3m0,-1.4c1.7,0,3.1,.6,4.2,1.8c1,1.1,1.5,2.5,1.5,4c0,1.5,-.6,2.8,-1.6,4c-1.1,1.1,-2.4,1.7,-4.1,1.7c-1.7,0,-3,-.6,-4.1,-1.7c-1.1,-1.2,-1.6,-2.5,-1.6,-4c0,-1.5,.5,-2.8,1.5,-4c1.1,-1.2,2.5,-1.8,4.2,-1.8Z" class="g3_5" />
<path d="M694.1,460.3c-1.2,0,-2.2,.4,-3,1.3c-.8,.8,-1.3,1.9,-1.3,3.1c0,.8,.2,1.5,.6,2.2c.4,.7,.9,1.2,1.6,1.6c.6,.3,1.3,.5,2.1,.5c.8,0,1.5,-.2,2.1,-.5c.7,-.4,1.2,-.9,1.6,-1.6c.4,-.7,.6,-1.4,.6,-2.2c0,-1.2,-.5,-2.3,-1.3,-3.1c-.8,-.9,-1.8,-1.3,-3,-1.3Zm0,-1.4c1.7,0,3.1,.6,4.2,1.8c1,1.1,1.5,2.5,1.5,4c0,1.5,-.6,2.8,-1.6,4c-1.1,1.1,-2.4,1.7,-4.1,1.7c-1.7,0,-3,-.6,-4.1,-1.7c-1.1,-1.2,-1.6,-2.5,-1.6,-4c0,-1.5,.5,-2.8,1.5,-4c1.1,-1.2,2.5,-1.8,4.2,-1.8Z" class="g4_5" />
<path d="M703.9,459.2h1.4v1.6c.4,-.6,.9,-1.1,1.4,-1.4c.4,-.3,.9,-.5,1.5,-.5c.3,0,.8,.1,1.2,.4l-.7,1.2c-.3,-.2,-.6,-.2,-.8,-.2c-.4,0,-.9,.2,-1.3,.5c-.5,.4,-.8,1,-1,1.8c-.2,.7,-.3,1.9,-.3,3.8v3.7h-1.4Z" class="g3_5" />
<path d="M703.9,459.2h1.4v1.6c.4,-.6,.9,-1.1,1.4,-1.4c.4,-.3,.9,-.5,1.5,-.5c.3,0,.8,.1,1.2,.4l-.7,1.2c-.3,-.2,-.6,-.2,-.8,-.2c-.4,0,-.9,.2,-1.3,.5c-.5,.4,-.8,1,-1,1.8c-.2,.7,-.3,1.9,-.3,3.8v3.7h-1.4V459.2Z" class="g4_5" />
<path d="M720.4,459.2h1.4v1.9c.5,-.7,1.1,-1.3,1.8,-1.6c.7,-.4,1.4,-.6,2.2,-.6c.9,0,1.6,.2,2.2,.6c.6,.4,1.1,1,1.4,1.7c.3,.7,.5,1.8,.5,3.3v5.6h-1.4v-5.2c0,-1.3,-.1,-2.1,-.2,-2.5c-.2,-.7,-.5,-1.3,-.9,-1.6c-.5,-.4,-1.1,-.6,-1.8,-.6c-.9,0,-1.6,.3,-2.3,.8c-.7,.6,-1.1,1.3,-1.3,2.1c-.2,.6,-.2,1.6,-.2,3v4h-1.4Z" class="g3_5" />
<path d="M720.4,459.2h1.4v1.9c.5,-.7,1.1,-1.3,1.8,-1.6c.7,-.4,1.4,-.6,2.2,-.6c.9,0,1.6,.2,2.2,.6c.6,.4,1.1,1,1.4,1.7c.3,.7,.5,1.8,.5,3.3v5.6h-1.4v-5.2c0,-1.3,-.1,-2.1,-.2,-2.5c-.2,-.7,-.5,-1.3,-.9,-1.6c-.5,-.4,-1.1,-.6,-1.8,-.6c-.9,0,-1.6,.3,-2.3,.8c-.7,.6,-1.1,1.3,-1.3,2.1c-.2,.6,-.2,1.6,-.2,3v4h-1.4V459.2Z" class="g4_5" />
<path d="M740.1,460.3c-1.2,0,-2.2,.4,-3,1.3c-.9,.8,-1.3,1.9,-1.3,3.1c0,.8,.2,1.5,.6,2.2c.4,.7,.9,1.2,1.5,1.6c.7,.3,1.4,.5,2.2,.5c.7,0,1.5,-.2,2.1,-.5c.7,-.4,1.2,-.9,1.6,-1.6c.3,-.7,.5,-1.4,.5,-2.2c0,-1.2,-.4,-2.3,-1.2,-3.1c-.9,-.9,-1.9,-1.3,-3,-1.3m0,-1.4c1.6,0,3,.6,4.1,1.8c1,1.1,1.5,2.5,1.5,4c0,1.5,-.5,2.8,-1.5,4c-1.1,1.1,-2.5,1.7,-4.1,1.7c-1.7,0,-3.1,-.6,-4.1,-1.7c-1.1,-1.2,-1.6,-2.5,-1.6,-4c0,-1.5,.5,-2.8,1.5,-4c1.1,-1.2,2.5,-1.8,4.2,-1.8Z" class="g3_5" />
<path d="M740.1,460.3c-1.2,0,-2.2,.4,-3,1.3c-.9,.8,-1.3,1.9,-1.3,3.1c0,.8,.2,1.5,.6,2.2c.4,.7,.9,1.2,1.5,1.6c.7,.3,1.4,.5,2.2,.5c.7,0,1.5,-.2,2.1,-.5c.7,-.4,1.2,-.9,1.6,-1.6c.3,-.7,.5,-1.4,.5,-2.2c0,-1.2,-.4,-2.3,-1.2,-3.1c-.9,-.9,-1.9,-1.3,-3,-1.3Zm0,-1.4c1.6,0,3,.6,4.1,1.8c1,1.1,1.5,2.5,1.5,4c0,1.5,-.5,2.8,-1.5,4c-1.1,1.1,-2.5,1.7,-4.1,1.7c-1.7,0,-3.1,-.6,-4.1,-1.7c-1.1,-1.2,-1.6,-2.5,-1.6,-4c0,-1.5,.5,-2.8,1.5,-4c1.1,-1.2,2.5,-1.8,4.2,-1.8Z" class="g4_5" />
<path d="M751.6,455.1H753v4.1h2.2v1.2H753v9.7h-1.4v-9.7h-1.9v-1.2h1.9Z" class="g3_5" />
<path d="M751.6,455.1H753v4.1h2.2v1.2H753v9.7h-1.4v-9.7h-1.9v-1.2h1.9v-4.1Z" class="g4_5" />
<path d="M760.9,467.9c.4,0,.7,.1,.9,.3c.2,.3,.4,.6,.4,.9c0,.4,-.2,.7,-.4,.9c-.2,.2,-.5,.4,-.9,.4c-.3,0,-.6,-.2,-.8,-.4c-.3,-.2,-.4,-.5,-.4,-.9c0,-.3,.1,-.6,.4,-.9c.2,-.2,.5,-.3,.8,-.3Z" class="g3_5" />
<path d="M760.9,467.9c.4,0,.7,.1,.9,.3c.2,.3,.4,.6,.4,.9c0,.4,-.2,.7,-.4,.9c-.2,.2,-.5,.4,-.9,.4c-.3,0,-.6,-.2,-.8,-.4c-.3,-.2,-.4,-.5,-.4,-.9c0,-.3,.1,-.6,.4,-.9c.2,-.2,.5,-.3,.8,-.3Z" class="g4_5" />
<path d="M448.6,425.1v-1.4h8.1v1.4h-3.3v13.3h-1.5V425.1Z" class="g3_5" />
<path d="M448.6,425.1v-1.4h8.1v1.4h-3.3v13.3h-1.5V425.1h-3.3Z" class="g4_5" />
<path d="M460.6,423.3H462v6.2c.6,-.8,1.2,-1.3,1.9,-1.7c.7,-.4,1.4,-.6,2.2,-.6c.8,0,1.5,.2,2.2,.7c.6,.4,1.1,.9,1.4,1.6c.3,.7,.4,1.8,.4,3.3v5.6h-1.4v-5.2c0,-1.2,0,-2.1,-.1,-2.5c-.2,-.7,-.5,-1.3,-1,-1.6c-.4,-.4,-1,-.6,-1.8,-.6c-.8,0,-1.6,.3,-2.3,.9c-.6,.5,-1.1,1.2,-1.3,2c-.1,.6,-.2,1.6,-.2,3v4h-1.4Z" class="g3_5" />
<path d="M460.6,423.3H462v6.2c.6,-.8,1.2,-1.3,1.9,-1.7c.7,-.4,1.4,-.6,2.2,-.6c.8,0,1.5,.2,2.2,.7c.6,.4,1.1,.9,1.4,1.6c.3,.7,.4,1.8,.4,3.3v5.6h-1.4v-5.2c0,-1.2,0,-2.1,-.1,-2.5c-.2,-.7,-.5,-1.3,-1,-1.6c-.4,-.4,-1,-.6,-1.8,-.6c-.8,0,-1.6,.3,-2.3,.9c-.6,.5,-1.1,1.2,-1.3,2c-.1,.6,-.2,1.6,-.2,3v4h-1.4V423.3Z" class="g4_5" />
<path d="M484.3,431.9c-.1,-.8,-.4,-1.4,-.8,-1.8c-.3,-.5,-.8,-.8,-1.4,-1.1c-.6,-.3,-1.2,-.4,-1.9,-.4c-1,0,-1.9,.3,-2.7,1c-.6,.5,-1,1.3,-1.3,2.3Zm0,2.9l1.2,.6c-.4,.8,-.8,1.4,-1.3,1.9c-.5,.4,-1.1,.8,-1.7,1c-.7,.3,-1.4,.4,-2.2,.4c-1.8,0,-3.2,-.6,-4.2,-1.8c-1,-1.1,-1.5,-2.4,-1.5,-3.9c0,-1.4,.5,-2.6,1.3,-3.7c1.1,-1.4,2.5,-2.1,4.3,-2.1c1.9,0,3.4,.7,4.5,2.1c.8,1,1.2,2.3,1.2,3.8h-9.8c0,1.2,.4,2.3,1.2,3.1c.8,.8,1.7,1.2,2.9,1.2c.5,0,1.1,-.1,1.6,-.3c.5,-.2,1,-.4,1.3,-.8c.4,-.3,.8,-.8,1.2,-1.5Z" class="g3_5" />
<path d="M484.3,431.9c-.1,-.8,-.4,-1.4,-.8,-1.8c-.3,-.5,-.8,-.8,-1.4,-1.1c-.6,-.3,-1.2,-.4,-1.9,-.4c-1,0,-1.9,.3,-2.7,1c-.6,.5,-1,1.3,-1.3,2.3h8.1Zm0,2.9l1.2,.6c-.4,.8,-.8,1.4,-1.3,1.9c-.5,.4,-1.1,.8,-1.7,1c-.7,.3,-1.4,.4,-2.2,.4c-1.8,0,-3.2,-.6,-4.2,-1.8c-1,-1.1,-1.5,-2.4,-1.5,-3.9c0,-1.4,.5,-2.6,1.3,-3.7c1.1,-1.4,2.5,-2.1,4.3,-2.1c1.9,0,3.4,.7,4.5,2.1c.8,1,1.2,2.3,1.2,3.8h-9.8c0,1.2,.4,2.3,1.2,3.1c.8,.8,1.7,1.2,2.9,1.2c.5,0,1.1,-.1,1.6,-.3c.5,-.2,1,-.4,1.3,-.8c.4,-.3,.8,-.8,1.2,-1.5Z" class="g4_5" />
<path d="M496.8,427.5h1.4l3.4,7.9l3.5,-7.9h.2l3.5,7.9l3.4,-7.9h1.5l-4.8,10.9h-.2l-3.5,-7.8l-3.5,7.8h-.2Z" class="g3_5" />
<path d="M496.8,427.5h1.4l3.4,7.9l3.5,-7.9h.2l3.5,7.9l3.4,-7.9h1.5l-4.8,10.9h-.2l-3.5,-7.8l-3.5,7.8h-.2l-4.7,-10.9Z" class="g4_5" />
<path d="M522.5,428.6c-1.2,0,-2.2,.4,-3,1.3c-.8,.9,-1.2,1.9,-1.2,3.1c0,.8,.1,1.5,.5,2.2c.4,.7,.9,1.2,1.6,1.6c.6,.4,1.3,.6,2.1,.6c.8,0,1.5,-.2,2.2,-.6c.6,-.4,1.1,-.9,1.5,-1.6c.4,-.7,.6,-1.4,.6,-2.2c0,-1.2,-.5,-2.2,-1.3,-3.1c-.8,-.9,-1.8,-1.3,-3,-1.3m0,-1.4c1.7,0,3.1,.6,4.2,1.9c1,1.1,1.5,2.4,1.5,3.9c0,1.5,-.5,2.8,-1.6,4c-1.1,1.1,-2.4,1.7,-4.1,1.7c-1.7,0,-3,-.6,-4.1,-1.7c-1,-1.2,-1.6,-2.5,-1.6,-4c0,-1.5,.5,-2.8,1.5,-3.9c1.1,-1.3,2.5,-1.9,4.2,-1.9Z" class="g3_5" />
<path d="M522.5,428.6c-1.2,0,-2.2,.4,-3,1.3c-.8,.9,-1.2,1.9,-1.2,3.1c0,.8,.1,1.5,.5,2.2c.4,.7,.9,1.2,1.6,1.6c.6,.4,1.3,.6,2.1,.6c.8,0,1.5,-.2,2.2,-.6c.6,-.4,1.1,-.9,1.5,-1.6c.4,-.7,.6,-1.4,.6,-2.2c0,-1.2,-.5,-2.2,-1.3,-3.1c-.8,-.9,-1.8,-1.3,-3,-1.3Zm0,-1.4c1.7,0,3.1,.6,4.2,1.9c1,1.1,1.5,2.4,1.5,3.9c0,1.5,-.5,2.8,-1.6,4c-1.1,1.1,-2.4,1.7,-4.1,1.7c-1.7,0,-3,-.6,-4.1,-1.7c-1,-1.2,-1.6,-2.5,-1.6,-4c0,-1.5,.5,-2.8,1.5,-3.9c1.1,-1.3,2.5,-1.9,4.2,-1.9Z" class="g4_5" />
<path d="M532.3,427.5h1.4v1.6c.5,-.6,.9,-1.1,1.4,-1.4c.5,-.3,1,-.5,1.5,-.5c.4,0,.8,.2,1.2,.4l-.7,1.2c-.3,-.1,-.6,-.2,-.8,-.2c-.4,0,-.9,.2,-1.3,.6c-.4,.3,-.8,.9,-1,1.8c-.2,.6,-.3,1.8,-.3,3.7v3.7h-1.4Z" class="g3_5" />
<path d="M532.3,427.5h1.4v1.6c.5,-.6,.9,-1.1,1.4,-1.4c.5,-.3,1,-.5,1.5,-.5c.4,0,.8,.2,1.2,.4l-.7,1.2c-.3,-.1,-.6,-.2,-.8,-.2c-.4,0,-.9,.2,-1.3,.6c-.4,.3,-.8,.9,-1,1.8c-.2,.6,-.3,1.8,-.3,3.7v3.7h-1.4V427.5Z" class="g4_5" />
<path d="M540.8,423.3h1.4v15.1h-1.4V423.3Z" class="g5_5" />
<path d="M552.5,428.6c-.8,0,-1.5,.2,-2.2,.6c-.6,.3,-1.2,.9,-1.6,1.6c-.3,.7,-.5,1.4,-.5,2.2c0,.7,.2,1.5,.5,2.2c.4,.7,1,1.2,1.6,1.6c.7,.4,1.4,.6,2.2,.6c.7,0,1.5,-.2,2.1,-.6c.7,-.4,1.3,-.9,1.6,-1.6c.4,-.6,.6,-1.4,.6,-2.2c0,-1.2,-.4,-2.3,-1.3,-3.1c-.8,-.9,-1.8,-1.3,-3,-1.3m5.6,-5.3v15.1h-1.4v-1.9c-.6,.7,-1.2,1.3,-2,1.6c-.7,.4,-1.5,.6,-2.4,.6c-1.5,0,-2.8,-.6,-3.9,-1.7c-1.1,-1.1,-1.7,-2.5,-1.7,-4.1c0,-1.5,.6,-2.9,1.7,-4c1.1,-1.1,2.4,-1.7,4,-1.7c.9,0,1.7,.2,2.4,.6c.7,.4,1.3,1,1.9,1.7v-6.2Z" class="g3_5" />
<path d="M552.5,428.6c-.8,0,-1.5,.2,-2.2,.6c-.6,.3,-1.2,.9,-1.6,1.6c-.3,.7,-.5,1.4,-.5,2.2c0,.7,.2,1.5,.5,2.2c.4,.7,1,1.2,1.6,1.6c.7,.4,1.4,.6,2.2,.6c.7,0,1.5,-.2,2.1,-.6c.7,-.4,1.3,-.9,1.6,-1.6c.4,-.6,.6,-1.4,.6,-2.2c0,-1.2,-.4,-2.3,-1.3,-3.1c-.8,-.9,-1.8,-1.3,-3,-1.3Zm5.6,-5.3v15.1h-1.4v-1.9c-.6,.7,-1.2,1.3,-2,1.6c-.7,.4,-1.5,.6,-2.4,.6c-1.5,0,-2.8,-.6,-3.9,-1.7c-1.1,-1.1,-1.7,-2.5,-1.7,-4.1c0,-1.5,.6,-2.9,1.7,-4c1.1,-1.1,2.4,-1.7,4,-1.7c.9,0,1.7,.2,2.4,.6c.7,.4,1.3,1,1.9,1.7v-6.2h1.4Z" class="g4_5" />
<path d="M569.6,427.5H571l3.3,7.9l3.5,-7.9h.3l3.5,7.9l3.4,-7.9h1.4l-4.7,10.9h-.3L578,430.6l-3.5,7.8h-.3Z" class="g3_5" />
<path d="M569.6,427.5H571l3.3,7.9l3.5,-7.9h.3l3.5,7.9l3.4,-7.9h1.4l-4.7,10.9h-.3L578,430.6l-3.5,7.8h-.3l-4.6,-10.9Z" class="g4_5" />
<path d="M599.3,431.9c-.2,-.8,-.5,-1.4,-.8,-1.8c-.4,-.5,-.9,-.8,-1.4,-1.1c-.6,-.3,-1.3,-.4,-1.9,-.4c-1.1,0,-2,.3,-2.8,1c-.5,.5,-.9,1.3,-1.2,2.3Zm0,2.9l1.2,.6c-.4,.8,-.9,1.4,-1.4,1.9c-.5,.4,-1,.8,-1.7,1c-.6,.3,-1.3,.4,-2.1,.4c-1.8,0,-3.2,-.6,-4.2,-1.8c-1,-1.1,-1.5,-2.4,-1.5,-3.9c0,-1.4,.4,-2.6,1.3,-3.7c1,-1.4,2.5,-2.1,4.3,-2.1c1.8,0,3.3,.7,4.4,2.1c.8,1,1.2,2.3,1.2,3.8H591c.1,1.2,.5,2.3,1.2,3.1c.8,.8,1.8,1.2,2.9,1.2c.6,0,1.1,-.1,1.7,-.3c.5,-.2,.9,-.4,1.3,-.8c.4,-.3,.8,-.8,1.2,-1.5Z" class="g3_5" />
<path d="M599.3,431.9c-.2,-.8,-.5,-1.4,-.8,-1.8c-.4,-.5,-.9,-.8,-1.4,-1.1c-.6,-.3,-1.3,-.4,-1.9,-.4c-1.1,0,-2,.3,-2.8,1c-.5,.5,-.9,1.3,-1.2,2.3h8.1Zm0,2.9l1.2,.6c-.4,.8,-.9,1.4,-1.4,1.9c-.5,.4,-1,.8,-1.7,1c-.6,.3,-1.3,.4,-2.1,.4c-1.8,0,-3.2,-.6,-4.2,-1.8c-1,-1.1,-1.5,-2.4,-1.5,-3.9c0,-1.4,.4,-2.6,1.3,-3.7c1,-1.4,2.5,-2.1,4.3,-2.1c1.8,0,3.3,.7,4.4,2.1c.8,1,1.2,2.3,1.2,3.8H591c.1,1.2,.5,2.3,1.2,3.1c.8,.8,1.8,1.2,2.9,1.2c.6,0,1.1,-.1,1.7,-.3c.5,-.2,.9,-.4,1.3,-.8c.4,-.3,.8,-.8,1.2,-1.5Z" class="g4_5" />
<path d="M613,423.3h1.4v15.1H613V423.3Z" class="g5_5" />
<path d="M619.2,427.5h1.4v10.9h-1.4V427.5Zm.7,-4.5c.3,0,.6,.1,.8,.4c.2,.2,.3,.5,.3,.8c0,.3,-.1,.6,-.3,.8c-.2,.2,-.5,.3,-.8,.3c-.4,0,-.6,-.1,-.8,-.3c-.3,-.2,-.4,-.5,-.4,-.8c0,-.3,.1,-.6,.4,-.8c.2,-.3,.4,-.4,.8,-.4Z" class="g3_5" />
<path d="M619.2,427.5h1.4v10.9h-1.4V427.5Zm.7,-4.5c.3,0,.6,.1,.8,.4c.2,.2,.3,.5,.3,.8c0,.3,-.1,.6,-.3,.8c-.2,.2,-.5,.3,-.8,.3c-.4,0,-.6,-.1,-.8,-.3c-.3,-.2,-.4,-.5,-.4,-.8c0,-.3,.1,-.6,.4,-.8c.2,-.3,.4,-.4,.8,-.4Z" class="g4_5" />
<path d="M624.5,427.5H626l3.6,7.9l3.7,-7.9h1.5l-5,10.9h-.3Z" class="g3_5" />
<path d="M624.5,427.5H626l3.6,7.9l3.7,-7.9h1.5l-5,10.9h-.3l-5,-10.9Z" class="g4_5" />
<path d="M648.1,431.9c-.2,-.8,-.4,-1.4,-.8,-1.8c-.4,-.5,-.8,-.8,-1.4,-1.1c-.6,-.3,-1.2,-.4,-1.9,-.4c-1,0,-2,.3,-2.7,1c-.6,.5,-1,1.3,-1.3,2.3Zm0,2.9l1.2,.6c-.4,.8,-.8,1.4,-1.3,1.9c-.6,.4,-1.1,.8,-1.8,1c-.6,.3,-1.3,.4,-2.1,.4c-1.8,0,-3.2,-.6,-4.2,-1.8c-1,-1.1,-1.5,-2.4,-1.5,-3.9c0,-1.4,.4,-2.6,1.3,-3.7c1.1,-1.4,2.5,-2.1,4.3,-2.1c1.9,0,3.3,.7,4.5,2.1c.7,1,1.1,2.3,1.2,3.8h-9.8c0,1.2,.4,2.3,1.2,3.1c.7,.8,1.7,1.2,2.9,1.2c.5,0,1.1,-.1,1.6,-.3c.5,-.2,1,-.4,1.3,-.8c.4,-.3,.8,-.8,1.2,-1.5Z" class="g3_5" />
<path d="M648.1,431.9c-.2,-.8,-.4,-1.4,-.8,-1.8c-.4,-.5,-.8,-.8,-1.4,-1.1c-.6,-.3,-1.2,-.4,-1.9,-.4c-1,0,-2,.3,-2.7,1c-.6,.5,-1,1.3,-1.3,2.3h8.1Zm0,2.9l1.2,.6c-.4,.8,-.8,1.4,-1.3,1.9c-.6,.4,-1.1,.8,-1.8,1c-.6,.3,-1.3,.4,-2.1,.4c-1.8,0,-3.2,-.6,-4.2,-1.8c-1,-1.1,-1.5,-2.4,-1.5,-3.9c0,-1.4,.4,-2.6,1.3,-3.7c1.1,-1.4,2.5,-2.1,4.3,-2.1c1.9,0,3.3,.7,4.5,2.1c.7,1,1.1,2.3,1.2,3.8h-9.8c0,1.2,.4,2.3,1.2,3.1c.7,.8,1.7,1.2,2.9,1.2c.5,0,1.1,-.1,1.6,-.3c.5,-.2,1,-.4,1.3,-.8c.4,-.3,.8,-.8,1.2,-1.5Z" class="g4_5" />
<path d="M661.8,427.5h1.4v10.9h-1.4V427.5Zm.7,-4.5c.4,0,.6,.1,.8,.4c.3,.2,.4,.5,.4,.8c0,.3,-.1,.6,-.4,.8c-.2,.2,-.4,.3,-.8,.3c-.3,0,-.6,-.1,-.8,-.3c-.2,-.2,-.3,-.5,-.3,-.8c0,-.3,.1,-.6,.3,-.8c.2,-.3,.5,-.4,.8,-.4Z" class="g3_5" />
<path d="M661.8,427.5h1.4v10.9h-1.4V427.5Zm.7,-4.5c.4,0,.6,.1,.8,.4c.3,.2,.4,.5,.4,.8c0,.3,-.1,.6,-.4,.8c-.2,.2,-.4,.3,-.8,.3c-.3,0,-.6,-.1,-.8,-.3c-.2,-.2,-.3,-.5,-.3,-.8c0,-.3,.1,-.6,.3,-.8c.2,-.3,.5,-.4,.8,-.4Z" class="g4_5" />
<path d="M668.2,427.5h1.4v2c.6,-.8,1.2,-1.3,1.9,-1.7c.6,-.4,1.4,-.6,2.2,-.6c.8,0,1.5,.2,2.2,.7c.6,.4,1.1,.9,1.4,1.6c.3,.7,.4,1.8,.4,3.3v5.6h-1.4v-5.2c0,-1.2,-.1,-2.1,-.2,-2.5c-.1,-.7,-.4,-1.3,-.9,-1.6c-.5,-.4,-1.1,-.6,-1.8,-.6c-.8,0,-1.6,.3,-2.3,.9c-.6,.5,-1.1,1.2,-1.3,2c-.1,.6,-.2,1.6,-.2,3v4h-1.4Z" class="g3_5" />
<path d="M668.2,427.5h1.4v2c.6,-.8,1.2,-1.3,1.9,-1.7c.6,-.4,1.4,-.6,2.2,-.6c.8,0,1.5,.2,2.2,.7c.6,.4,1.1,.9,1.4,1.6c.3,.7,.4,1.8,.4,3.3v5.6h-1.4v-5.2c0,-1.2,-.1,-2.1,-.2,-2.5c-.1,-.7,-.4,-1.3,-.9,-1.6c-.5,-.4,-1.1,-.6,-1.8,-.6c-.8,0,-1.6,.3,-2.3,.9c-.6,.5,-1.1,1.2,-1.3,2c-.1,.6,-.2,1.6,-.2,3v4h-1.4V427.5Z" class="g4_5" />
<path d="M684.3,436.2c.3,0,.6,.1,.9,.4c.2,.2,.3,.5,.3,.8c0,.4,-.1,.7,-.3,.9c-.3,.3,-.6,.4,-.9,.4c-.3,0,-.6,-.1,-.9,-.4c-.2,-.2,-.3,-.5,-.3,-.9c0,-.3,.1,-.6,.3,-.8c.3,-.3,.6,-.4,.9,-.4Z" class="g3_5" />
<path d="M684.3,436.2c.3,0,.6,.1,.9,.4c.2,.2,.3,.5,.3,.8c0,.4,-.1,.7,-.3,.9c-.3,.3,-.6,.4,-.9,.4c-.3,0,-.6,-.1,-.9,-.4c-.2,-.2,-.3,-.5,-.3,-.9c0,-.3,.1,-.6,.3,-.8c.3,-.3,.6,-.4,.9,-.4Z" class="g4_5" />
<image preserveAspectRatio="none" x="797" y="309" width="1931" height="271" xlink:href="img/1.png" />
<image preserveAspectRatio="none" x="-190" y="37" width="987" height="272" xlink:href="img/2.png" />
<image preserveAspectRatio="none" x="31" y="31" width="393" height="285" xlink:href="img/3.png" />
<image preserveAspectRatio="none" x="308" y="37" width="868" height="272" xlink:href="img/4.png" />
<image preserveAspectRatio="none" x="366" y="580" width="482" height="272" xlink:href="img/5.png" />
<image preserveAspectRatio="none" x="-306" y="580" width="723" height="272" xlink:href="img/6.png" />
<image preserveAspectRatio="none" x="305" y="580" width="871" height="490" xlink:href="img/7.png" />
<image preserveAspectRatio="none" x="-547" y="309" width="964" height="271" xlink:href="img/8.png" />
<path d="M41.3,50.4H0m1172.6,0h41.2M41.3,838.6H0m1172.6,0h41.2M50.4,41.3V0m0,847.8V889M1163.4,41.3V0m0,847.8V889" class="g6_5" />
<path d="M41.3,50.4H0m1172.6,0h41.2M41.3,838.6H0m1172.6,0h41.2M50.4,41.3V0m0,847.8V889M1163.4,41.3V0m0,847.8V889" class="g7_5" />
<path d="M87.1,20.6c0,5.1,-4.1,9.2,-9.2,9.2c-5,0,-9.1,-4.1,-9.1,-9.2c0,-5,4.1,-9.1,9.1,-9.1c5.1,0,9.2,4.1,9.2,9.1Zm-22.9,0H91.7M77.9,6.9V34.4M82.5,20.6c0,2.6,-2.1,4.6,-4.6,4.6c-2.5,0,-4.6,-2,-4.6,-4.6c0,-2.5,2.1,-4.6,4.6,-4.6c2.5,0,4.6,2.1,4.6,4.6Z" class="g6_5" />
<path d="M87.1,20.6c0,5.1,-4.1,9.2,-9.2,9.2c-5,0,-9.1,-4.1,-9.1,-9.2c0,-5,4.1,-9.1,9.1,-9.1c5.1,0,9.2,4.1,9.2,9.1Zm-22.9,0H91.7M77.9,6.9V34.4" class="g7_5" />
<path d="M82.5,20.6c0,2.6,-2.1,4.6,-4.6,4.6c-2.5,0,-4.6,-2,-4.6,-4.6c0,-2.5,2.1,-4.6,4.6,-4.6c2.5,0,4.6,2.1,4.6,4.6Z" class="g8_5" />
<path d="M73.3,20.6h9.2M77.9,16v9.2" class="g9_5" />
<path d="M1145.1,20.6c0,5.1,-4.1,9.2,-9.2,9.2c-5.1,0,-9.2,-4.1,-9.2,-9.2c0,-5,4.1,-9.1,9.2,-9.1c5.1,0,9.2,4.1,9.2,9.1Zm-22.9,0h27.5M1135.9,6.9V34.4m4.6,-13.8c0,2.6,-2.1,4.6,-4.6,4.6c-2.5,0,-4.6,-2,-4.6,-4.6c0,-2.5,2.1,-4.6,4.6,-4.6c2.5,0,4.6,2.1,4.6,4.6Z" class="g6_5" />
<path d="M1145.1,20.6c0,5.1,-4.1,9.2,-9.2,9.2c-5.1,0,-9.2,-4.1,-9.2,-9.2c0,-5,4.1,-9.1,9.2,-9.1c5.1,0,9.2,4.1,9.2,9.1Zm-22.9,0h27.5M1135.9,6.9V34.4" class="g7_5" />
<path d="M1140.5,20.6c0,2.6,-2.1,4.6,-4.6,4.6c-2.5,0,-4.6,-2,-4.6,-4.6c0,-2.5,2.1,-4.6,4.6,-4.6c2.5,0,4.6,2.1,4.6,4.6Z" class="g8_5" />
<path d="M1131.3,20.6h9.2M1135.9,16v9.2" class="g9_5" />
<path d="M87.1,868.4c0,5.1,-4.1,9.2,-9.2,9.2c-5,0,-9.1,-4.1,-9.1,-9.2c0,-5.1,4.1,-9.2,9.1,-9.2c5.1,0,9.2,4.1,9.2,9.2Zm-22.9,0H91.7M77.9,854.7v27.5m4.6,-13.8c0,2.5,-2.1,4.6,-4.6,4.6c-2.5,0,-4.6,-2.1,-4.6,-4.6c0,-2.5,2.1,-4.6,4.6,-4.6c2.5,0,4.6,2.1,4.6,4.6Z" class="g6_5" />
<path d="M87.1,868.4c0,5.1,-4.1,9.2,-9.2,9.2c-5,0,-9.1,-4.1,-9.1,-9.2c0,-5.1,4.1,-9.2,9.1,-9.2c5.1,0,9.2,4.1,9.2,9.2Zm-22.9,0H91.7M77.9,854.7v27.5" class="g7_5" />
<path d="M82.5,868.4c0,2.5,-2.1,4.6,-4.6,4.6c-2.5,0,-4.6,-2.1,-4.6,-4.6c0,-2.5,2.1,-4.6,4.6,-4.6c2.5,0,4.6,2.1,4.6,4.6Z" class="g8_5" />
<path d="M73.3,868.4h9.2m-4.6,-4.6V873" class="g9_5" />
<path d="M1145.1,868.4c0,5.1,-4.1,9.2,-9.2,9.2c-5.1,0,-9.2,-4.1,-9.2,-9.2c0,-5.1,4.1,-9.2,9.2,-9.2c5.1,0,9.2,4.1,9.2,9.2Zm-22.9,0h27.5m-13.8,-13.7v27.5m4.6,-13.8c0,2.5,-2.1,4.6,-4.6,4.6c-2.5,0,-4.6,-2.1,-4.6,-4.6c0,-2.5,2.1,-4.6,4.6,-4.6c2.5,0,4.6,2.1,4.6,4.6Z" class="g6_5" />
<path d="M1145.1,868.4c0,5.1,-4.1,9.2,-9.2,9.2c-5.1,0,-9.2,-4.1,-9.2,-9.2c0,-5.1,4.1,-9.2,9.2,-9.2c5.1,0,9.2,4.1,9.2,9.2Zm-22.9,0h27.5m-13.8,-13.7v27.5" class="g7_5" />
<path d="M1140.5,868.4c0,2.5,-2.1,4.6,-4.6,4.6c-2.5,0,-4.6,-2.1,-4.6,-4.6c0,-2.5,2.1,-4.6,4.6,-4.6c2.5,0,4.6,2.1,4.6,4.6Z" class="g8_5" />
<path d="M1131.3,868.4h9.2m-4.6,-4.6V873" class="g9_5" />
<path d="M29.8,77.9c0,5.1,-4.1,9.2,-9.2,9.2c-5,0,-9.1,-4.1,-9.1,-9.2c0,-5,4.1,-9.1,9.1,-9.1c5.1,0,9.2,4.1,9.2,9.1Zm-22.9,0H34.4M20.6,64.2V91.7M25.2,77.9c0,2.5,-2,4.6,-4.6,4.6C18.1,82.5,16,80.4,16,77.9c0,-2.5,2.1,-4.6,4.6,-4.6c2.6,0,4.6,2.1,4.6,4.6Z" class="g6_5" />
<path d="M29.8,77.9c0,5.1,-4.1,9.2,-9.2,9.2c-5,0,-9.1,-4.1,-9.1,-9.2c0,-5,4.1,-9.1,9.1,-9.1c5.1,0,9.2,4.1,9.2,9.1Zm-22.9,0H34.4M20.6,64.2V91.7" class="g7_5" />
<path d="M25.2,77.9c0,2.5,-2,4.6,-4.6,4.6C18.1,82.5,16,80.4,16,77.9c0,-2.5,2.1,-4.6,4.6,-4.6c2.6,0,4.6,2.1,4.6,4.6Z" class="g8_5" />
<path d="M16,77.9h9.2M20.6,73.3v9.2" class="g9_5" />
<path d="M29.8,811.1c0,5.1,-4.1,9.2,-9.2,9.2c-5,0,-9.1,-4.1,-9.1,-9.2c0,-5.1,4.1,-9.2,9.1,-9.2c5.1,0,9.2,4.1,9.2,9.2Zm-22.9,0H34.4M20.6,797.4v27.5m4.6,-13.8c0,2.5,-2,4.6,-4.6,4.6c-2.5,0,-4.6,-2.1,-4.6,-4.6c0,-2.5,2.1,-4.6,4.6,-4.6c2.6,0,4.6,2.1,4.6,4.6Z" class="g6_5" />
<path d="M29.8,811.1c0,5.1,-4.1,9.2,-9.2,9.2c-5,0,-9.1,-4.1,-9.1,-9.2c0,-5.1,4.1,-9.2,9.1,-9.2c5.1,0,9.2,4.1,9.2,9.2Zm-22.9,0H34.4M20.6,797.4v27.5" class="g7_5" />
<path d="M25.2,811.1c0,2.5,-2,4.6,-4.6,4.6c-2.5,0,-4.6,-2.1,-4.6,-4.6c0,-2.5,2.1,-4.6,4.6,-4.6c2.6,0,4.6,2.1,4.6,4.6Z" class="g8_5" />
<path d="M16,811.1h9.2m-4.6,-4.6v9.2" class="g9_5" />
<path d="M1202.4,77.9c0,5.1,-4.1,9.2,-9.2,9.2c-5.1,0,-9.2,-4.1,-9.2,-9.2c0,-5,4.1,-9.1,9.2,-9.1c5.1,0,9.2,4.1,9.2,9.1Zm-23,0h27.5M1193.2,64.2V91.7m4.6,-13.8c0,2.5,-2.1,4.6,-4.6,4.6c-2.5,0,-4.6,-2.1,-4.6,-4.6c0,-2.5,2.1,-4.6,4.6,-4.6c2.5,0,4.6,2.1,4.6,4.6Z" class="g6_5" />
<path d="M1202.4,77.9c0,5.1,-4.1,9.2,-9.2,9.2c-5.1,0,-9.2,-4.1,-9.2,-9.2c0,-5,4.1,-9.1,9.2,-9.1c5.1,0,9.2,4.1,9.2,9.1Zm-23,0h27.5M1193.2,64.2V91.7" class="g7_5" />
<path d="M1197.8,77.9c0,2.5,-2.1,4.6,-4.6,4.6c-2.5,0,-4.6,-2.1,-4.6,-4.6c0,-2.5,2.1,-4.6,4.6,-4.6c2.5,0,4.6,2.1,4.6,4.6Z" class="g8_5" />
<path d="M1188.6,77.9h9.2m-4.6,-4.6v9.2" class="g9_5" />
<path d="M1202.4,811.1c0,5.1,-4.1,9.2,-9.2,9.2c-5.1,0,-9.2,-4.1,-9.2,-9.2c0,-5.1,4.1,-9.2,9.2,-9.2c5.1,0,9.2,4.1,9.2,9.2Zm-23,0h27.5m-13.7,-13.7v27.5m4.6,-13.8c0,2.5,-2.1,4.6,-4.6,4.6c-2.5,0,-4.6,-2.1,-4.6,-4.6c0,-2.5,2.1,-4.6,4.6,-4.6c2.5,0,4.6,2.1,4.6,4.6Z" class="g6_5" />
<path d="M1202.4,811.1c0,5.1,-4.1,9.2,-9.2,9.2c-5.1,0,-9.2,-4.1,-9.2,-9.2c0,-5.1,4.1,-9.2,9.2,-9.2c5.1,0,9.2,4.1,9.2,9.2Zm-23,0h27.5m-13.7,-13.7v27.5" class="g7_5" />
<path d="M1197.8,811.1c0,2.5,-2.1,4.6,-4.6,4.6c-2.5,0,-4.6,-2.1,-4.6,-4.6c0,-2.5,2.1,-4.6,4.6,-4.6c2.5,0,4.6,2.1,4.6,4.6Z" class="g8_5" />
<path d="M1188.6,811.1h9.2m-4.6,-4.6v9.2" class="g9_5" />
<path d="M34.4,20.6c0,7.6,-6.2,13.8,-13.8,13.8C13,34.4,6.9,28.2,6.9,20.6C6.9,13,13,6.9,20.6,6.9c7.6,0,13.8,6.1,13.8,13.7Z" class="g10_5" />
<path d="M34.4,20.6c0,7.6,-6.2,13.8,-13.8,13.8C13,34.4,6.9,28.2,6.9,20.6C6.9,13,13,6.9,20.6,6.9c7.6,0,13.8,6.1,13.8,13.7Z" class="g11_5" />
<g clip-path="url(#c0_5)">
<path d="M34.4,20.6c0,7.6,-6.2,13.8,-13.8,13.8C13,34.4,6.9,28.2,6.9,20.6C6.9,13,13,6.9,20.6,6.9c7.6,0,13.8,6.1,13.8,13.7Z" class="g8_5" />
</g>
<g clip-path="url(#c1_5)">
<path d="M34.2,23c-1.4,7.5,-8.5,12.5,-16,11.2C10.8,32.8,5.8,25.7,7.1,18.2C8.4,10.8,15.5,5.8,23,7.1C30.5,8.4,35.5,15.5,34.2,23Z" class="g8_5" />
</g>
<g clip-path="url(#c2_5)">
<path d="M33.5,25.3C30.9,32.5,23.1,36.1,15.9,33.5C8.8,30.9,5.1,23.1,7.7,15.9C10.3,8.8,18.2,5.1,25.3,7.7c7.2,2.6,10.8,10.5,8.2,17.6Z" class="g8_5" />
</g>
<g clip-path="url(#c3_5)">
<path d="M32.5,27.5c-3.8,6.6,-12.2,8.8,-18.7,5C7.2,28.7,4.9,20.3,8.7,13.8C12.5,7.2,20.9,4.9,27.5,8.7c6.6,3.8,8.8,12.2,5,18.8Z" class="g8_5" />
</g>
<g clip-path="url(#c4_5)">
<path d="M31.2,29.5C26.3,35.3,17.6,36,11.8,31.2C6,26.3,5.2,17.6,10.1,11.8C15,6,23.6,5.2,29.5,10.1C35.3,15,36,23.6,31.2,29.5Z" class="g8_5" />
</g>
<g clip-path="url(#c5_5)">
<path d="M29.5,31.2C23.6,36,15,35.3,10.1,29.5C5.2,23.6,6,15,11.8,10.1C17.6,5.2,26.3,6,31.2,11.8c4.8,5.8,4.1,14.5,-1.7,19.4Z" class="g8_5" />
</g>
<g clip-path="url(#c6_5)">
<path d="M27.5,32.5c-6.6,3.8,-15,1.6,-18.8,-5C4.9,20.9,7.2,12.5,13.8,8.7c6.5,-3.8,14.9,-1.5,18.7,5c3.8,6.6,1.6,15,-5,18.8Z" class="g8_5" />
</g>
<g clip-path="url(#c7_5)">
<path d="M25.3,33.5c-7.1,2.6,-15,-1,-17.6,-8.2C5.1,18.2,8.8,10.3,15.9,7.7c7.2,-2.6,15,1.1,17.6,8.2c2.6,7.2,-1,15,-8.2,17.6Z" class="g8_5" />
</g>
<g clip-path="url(#c8_5)">
<path d="M23,34.2C15.5,35.5,8.4,30.5,7.1,23C5.8,15.5,10.8,8.4,18.2,7.1c7.5,-1.3,14.6,3.7,16,11.1c1.3,7.5,-3.7,14.6,-11.2,16Z" class="g8_5" />
</g>
<g clip-path="url(#c9_5)">
<path d="M20.6,34.4C13,34.4,6.9,28.2,6.9,20.6C6.9,13,13,6.9,20.6,6.9c7.6,0,13.8,6.1,13.8,13.7c0,7.6,-6.2,13.8,-13.8,13.8Z" class="g8_5" />
</g>
<g clip-path="url(#c10_5)">
<path d="M18.2,34.2C10.8,32.8,5.8,25.7,7.1,18.2C8.4,10.8,15.5,5.8,23,7.1C30.5,8.4,35.5,15.5,34.2,23c-1.4,7.5,-8.5,12.5,-16,11.2Z" class="g8_5" />
</g>
<g clip-path="url(#c11_5)">
<path d="M15.9,33.5C8.8,30.9,5.1,23.1,7.7,15.9C10.3,8.8,18.2,5.1,25.3,7.7c7.2,2.6,10.8,10.5,8.2,17.6C30.9,32.5,23.1,36.1,15.9,33.5Z" class="g8_5" />
</g>
<g clip-path="url(#c12_5)">
<path d="M13.8,32.5C7.2,28.7,4.9,20.3,8.7,13.7C12.5,7.2,20.9,4.9,27.5,8.7c6.6,3.8,8.8,12.2,5,18.8c-3.8,6.6,-12.2,8.8,-18.7,5Z" class="g8_5" />
</g>
<g clip-path="url(#c13_5)">
<path d="M11.8,31.2C6,26.3,5.2,17.6,10.1,11.8C15,6,23.6,5.2,29.5,10.1C35.3,15,36,23.6,31.2,29.5C26.3,35.3,17.6,36,11.8,31.2Z" class="g8_5" />
</g>
<g clip-path="url(#c14_5)">
<path d="M10.1,29.5C5.2,23.6,6,15,11.8,10.1C17.6,5.2,26.3,6,31.2,11.8c4.8,5.8,4.1,14.5,-1.7,19.4C23.6,36,15,35.3,10.1,29.5Z" class="g8_5" />
</g>
<g clip-path="url(#c15_5)">
<path d="M8.7,27.5C4.9,20.9,7.2,12.5,13.7,8.7c6.6,-3.8,15,-1.5,18.8,5.1c3.8,6.5,1.6,14.9,-5,18.7c-6.6,3.8,-15,1.6,-18.8,-5Z" class="g8_5" />
</g>
<g clip-path="url(#c16_5)">
<path d="M7.7,25.3C5.1,18.2,8.8,10.3,15.9,7.7c7.2,-2.6,15,1.1,17.6,8.2c2.6,7.2,-1,15,-8.2,17.6c-7.1,2.6,-15,-1,-17.6,-8.2Z" class="g8_5" />
</g>
<g clip-path="url(#c17_5)">
<path d="M7.1,23C5.8,15.5,10.8,8.4,18.2,7.1c7.5,-1.3,14.6,3.7,16,11.1c1.3,7.5,-3.7,14.6,-11.2,16C15.5,35.5,8.4,30.5,7.1,23Z" class="g8_5" />
</g>
<g clip-path="url(#c18_5)">
<path d="M6.9,20.6C6.9,13,13,6.9,20.6,6.9c7.6,0,13.8,6.1,13.8,13.7c0,7.6,-6.2,13.8,-13.8,13.8C13,34.4,6.9,28.2,6.9,20.6Z" class="g8_5" />
</g>
<g clip-path="url(#c19_5)">
<path d="M7.1,18.2C8.4,10.8,15.5,5.8,23,7.1C30.5,8.4,35.5,15.5,34.2,23c-1.4,7.5,-8.5,12.5,-16,11.2C10.8,32.8,5.8,25.7,7.1,18.2Z" class="g8_5" />
</g>
<g clip-path="url(#c20_5)">
<path d="M7.7,15.9C10.3,8.8,18.2,5.1,25.3,7.7c7.2,2.6,10.8,10.5,8.2,17.6C30.9,32.5,23.1,36.1,15.9,33.5C8.8,30.9,5.1,23.1,7.7,15.9Z" class="g8_5" />
</g>
<g clip-path="url(#c21_5)">
<path d="M8.7,13.8C12.5,7.2,20.9,4.9,27.5,8.7c6.6,3.8,8.8,12.2,5,18.8c-3.8,6.6,-12.2,8.8,-18.8,5C7.2,28.7,4.9,20.3,8.7,13.8Z" class="g8_5" />
</g>
<g clip-path="url(#c22_5)">
<path d="M10.1,11.8C15,6,23.6,5.2,29.5,10.1C35.3,15,36,23.6,31.2,29.5C26.3,35.3,17.6,36,11.8,31.2C6,26.3,5.2,17.6,10.1,11.8Z" class="g8_5" />
</g>
<g clip-path="url(#c23_5)">
<path d="M11.8,10.1C17.6,5.2,26.3,6,31.2,11.8c4.8,5.8,4.1,14.5,-1.7,19.4C23.6,36,15,35.3,10.1,29.5C5.2,23.6,6,15,11.8,10.1Z" class="g8_5" />
</g>
<g clip-path="url(#c24_5)">
<path d="M13.8,8.7C20.3,4.9,28.7,7.2,32.5,13.8c3.8,6.5,1.6,14.9,-5,18.7c-6.6,3.8,-15,1.6,-18.8,-5C4.9,20.9,7.2,12.5,13.8,8.7Z" class="g8_5" />
</g>
<g clip-path="url(#c25_5)">
<path d="M15.9,7.7c7.2,-2.6,15,1.1,17.6,8.2c2.6,7.2,-1,15,-8.2,17.6c-7.1,2.6,-15,-1,-17.6,-8.2C5.1,18.2,8.8,10.3,15.9,7.7Z" class="g8_5" />
</g>
<g clip-path="url(#c26_5)">
<path d="M18.2,7.1c7.5,-1.3,14.6,3.7,16,11.1c1.3,7.5,-3.7,14.6,-11.2,16C15.5,35.5,8.4,30.5,7.1,23C5.8,15.5,10.8,8.4,18.2,7.1Z" class="g8_5" />
</g>
<g clip-path="url(#c27_5)">
<path d="M20.6,6.9c7.6,0,13.8,6.1,13.8,13.7c0,7.6,-6.2,13.8,-13.8,13.8C13,34.4,6.9,28.2,6.9,20.6C6.9,13,13,6.9,20.6,6.9Z" class="g8_5" />
</g>
<g clip-path="url(#c28_5)">
<path d="M23,7.1C30.5,8.4,35.5,15.5,34.2,23c-1.4,7.5,-8.5,12.5,-16,11.2C10.8,32.8,5.8,25.7,7.1,18.2C8.4,10.8,15.5,5.8,23,7.1Z" class="g8_5" />
</g>
<g clip-path="url(#c29_5)">
<path d="M25.3,7.7c7.2,2.6,10.8,10.5,8.2,17.6C30.9,32.5,23.1,36.1,15.9,33.5C8.8,30.9,5.1,23.1,7.7,15.9C10.3,8.8,18.2,5.1,25.3,7.7Z" class="g8_5" />
</g>
<g clip-path="url(#c30_5)">
<path d="M27.5,8.7c6.6,3.8,8.8,12.2,5,18.8c-3.8,6.6,-12.2,8.8,-18.7,5C7.2,28.7,4.9,20.3,8.7,13.8C12.5,7.2,20.9,4.9,27.5,8.7Z" class="g8_5" />
</g>
<g clip-path="url(#c31_5)">
<path d="M29.5,10.1C35.3,15,36,23.6,31.2,29.5C26.3,35.3,17.6,36,11.8,31.2C6,26.3,5.2,17.6,10.1,11.8C15,6,23.6,5.2,29.5,10.1Z" class="g8_5" />
</g>
<g clip-path="url(#c32_5)">
<path d="M31.2,11.8c4.8,5.8,4.1,14.5,-1.7,19.4C23.6,36,15,35.3,10.1,29.5C5.2,23.6,6,15,11.8,10.1C17.6,5.2,26.3,6,31.2,11.8Z" class="g8_5" />
</g>
<g clip-path="url(#c33_5)">
<path d="M32.5,13.8c3.8,6.5,1.6,14.9,-5,18.7c-6.6,3.8,-15,1.6,-18.8,-5C4.9,20.9,7.2,12.5,13.8,8.7C20.3,4.9,28.7,7.2,32.5,13.8Z" class="g8_5" />
</g>
<g clip-path="url(#c34_5)">
<path d="M33.5,15.9c2.6,7.2,-1,15,-8.2,17.6c-7.1,2.6,-15,-1,-17.6,-8.2C5.1,18.2,8.8,10.3,15.9,7.7c7.2,-2.6,15,1.1,17.6,8.2Z" class="g8_5" />
</g>
<g clip-path="url(#c35_5)">
<path d="M34.2,18.2c1.3,7.5,-3.7,14.6,-11.2,16C15.5,35.5,8.4,30.5,7.1,23C5.8,15.5,10.8,8.4,18.2,7.1c7.5,-1.3,14.6,3.7,16,11.1Z" class="g8_5" />
</g>
<path d="M1206.9,868.4c0,7.6,-6.1,13.8,-13.7,13.8c-7.6,0,-13.8,-6.2,-13.8,-13.8c0,-7.6,6.2,-13.7,13.8,-13.7c7.6,0,13.7,6.1,13.7,13.7Z" class="g10_5" />
<path d="M1206.9,868.4c0,7.6,-6.1,13.8,-13.7,13.8c-7.6,0,-13.8,-6.2,-13.8,-13.8c0,-7.6,6.2,-13.7,13.8,-13.7c7.6,0,13.7,6.1,13.7,13.7Z" class="g11_5" />
<g clip-path="url(#c36_5)">
<path d="M1206.9,868.4c0,7.6,-6.1,13.8,-13.7,13.8c-7.6,0,-13.8,-6.2,-13.8,-13.8c0,-7.6,6.2,-13.7,13.8,-13.7c7.6,0,13.7,6.1,13.7,13.7Z" class="g8_5" />
</g>
<g clip-path="url(#c37_5)">
<path d="M1206.7,870.8c-1.3,7.5,-8.4,12.5,-15.9,11.1c-7.5,-1.3,-12.5,-8.4,-11.1,-15.9c1.3,-7.5,8.4,-12.5,15.9,-11.1c7.5,1.3,12.5,8.4,11.1,15.9Z" class="g8_5" />
</g>
<g clip-path="url(#c38_5)">
<path d="M1206.1,873.1c-2.6,7.1,-10.5,10.8,-17.6,8.2c-7.1,-2.6,-10.8,-10.5,-8.2,-17.6c2.6,-7.1,10.5,-10.8,17.6,-8.2c7.1,2.6,10.8,10.5,8.2,17.6Z" class="g8_5" />
</g>
<g clip-path="url(#c39_5)">
<path d="M1205.1,875.3c-3.8,6.6,-12.2,8.8,-18.8,5c-6.6,-3.8,-8.8,-12.2,-5,-18.8c3.8,-6.5,12.2,-8.8,18.8,-5c6.5,3.8,8.8,12.2,5,18.8Z" class="g8_5" />
</g>
<g clip-path="url(#c40_5)">
<path d="M1203.7,877.2c-4.9,5.9,-13.5,6.6,-19.3,1.7c-5.9,-4.8,-6.6,-13.5,-1.7,-19.3c4.8,-5.9,13.5,-6.6,19.3,-1.7c5.8,4.9,6.6,13.5,1.7,19.3Z" class="g8_5" />
</g>
<g clip-path="url(#c41_5)">
<path d="M1202,878.9c-5.8,4.9,-14.5,4.2,-19.3,-1.7c-4.9,-5.8,-4.2,-14.4,1.7,-19.3c5.8,-4.9,14.4,-4.2,19.3,1.7c4.9,5.8,4.2,14.5,-1.7,19.3Z" class="g8_5" />
</g>
<g clip-path="url(#c42_5)">
<path d="M1200.1,880.3c-6.6,3.8,-15,1.6,-18.8,-5c-3.8,-6.6,-1.6,-15,5,-18.8c6.6,-3.8,15,-1.5,18.8,5c3.8,6.6,1.5,15,-5,18.8Z" class="g8_5" />
</g>
<g clip-path="url(#c43_5)">
<path d="M1197.9,881.3c-7.1,2.6,-15,-1.1,-17.6,-8.2c-2.6,-7.1,1.1,-15,8.2,-17.6c7.1,-2.6,15,1.1,17.6,8.2c2.6,7.1,-1.1,15,-8.2,17.6Z" class="g8_5" />
</g>
<g clip-path="url(#c44_5)">
<path d="M1195.6,881.9c-7.5,1.4,-14.6,-3.6,-15.9,-11.1c-1.4,-7.5,3.6,-14.6,11.1,-15.9c7.5,-1.4,14.6,3.6,15.9,11.1c1.4,7.5,-3.6,14.6,-11.1,15.9Z" class="g8_5" />
</g>
<g clip-path="url(#c45_5)">
<path d="M1193.2,882.2c-7.6,0,-13.8,-6.2,-13.8,-13.8c0,-7.6,6.2,-13.7,13.8,-13.7c7.6,0,13.7,6.1,13.7,13.7c0,7.6,-6.1,13.8,-13.7,13.8Z" class="g8_5" />
</g>
<g clip-path="url(#c46_5)">
<path d="M1190.8,881.9c-7.5,-1.3,-12.5,-8.4,-11.1,-15.9c1.3,-7.5,8.4,-12.5,15.9,-11.1c7.5,1.3,12.5,8.4,11.1,15.9c-1.3,7.5,-8.4,12.5,-15.9,11.1Z" class="g8_5" />
</g>
<g clip-path="url(#c47_5)">
<path d="M1188.5,881.3c-7.1,-2.6,-10.8,-10.5,-8.2,-17.6c2.6,-7.1,10.5,-10.8,17.6,-8.2c7.1,2.6,10.8,10.5,8.2,17.6c-2.6,7.1,-10.5,10.8,-17.6,8.2Z" class="g8_5" />
</g>
<g clip-path="url(#c48_5)">
<path d="M1186.3,880.3c-6.6,-3.8,-8.8,-12.2,-5,-18.8c3.8,-6.5,12.2,-8.8,18.8,-5c6.5,3.8,8.8,12.2,5,18.8c-3.8,6.6,-12.2,8.8,-18.8,5Z" class="g8_5" />
</g>
<g clip-path="url(#c49_5)">
<path d="M1184.4,878.9c-5.9,-4.8,-6.6,-13.5,-1.7,-19.3c4.8,-5.9,13.5,-6.6,19.3,-1.7c5.9,4.9,6.6,13.5,1.7,19.3c-4.9,5.9,-13.5,6.6,-19.3,1.7Z" class="g8_5" />
</g>
<g clip-path="url(#c50_5)">
<path d="M1182.7,877.2c-4.9,-5.8,-4.2,-14.4,1.7,-19.3c5.8,-4.9,14.4,-4.2,19.3,1.7c4.9,5.8,4.2,14.5,-1.7,19.3c-5.8,4.9,-14.5,4.2,-19.3,-1.7Z" class="g8_5" />
</g>
<g clip-path="url(#c51_5)">
<path d="M1181.3,875.3c-3.8,-6.6,-1.6,-15,5,-18.8c6.6,-3.8,15,-1.5,18.8,5c3.8,6.6,1.5,15,-5,18.8c-6.6,3.8,-15,1.6,-18.8,-5Z" class="g8_5" />
</g>
<g clip-path="url(#c52_5)">
<path d="M1180.3,873.1c-2.6,-7.1,1.1,-15,8.2,-17.6c7.1,-2.6,15,1.1,17.6,8.2c2.6,7.1,-1.1,15,-8.2,17.6c-7.1,2.6,-15,-1.1,-17.6,-8.2Z" class="g8_5" />
</g>
<g clip-path="url(#c53_5)">
<path d="M1179.7,870.8c-1.4,-7.5,3.6,-14.6,11.1,-15.9c7.5,-1.4,14.6,3.6,15.9,11.1c1.4,7.5,-3.6,14.6,-11.1,15.9c-7.5,1.4,-14.6,-3.6,-15.9,-11.1Z" class="g8_5" />
</g>
<g clip-path="url(#c54_5)">
<path d="M1179.4,868.4c0,-7.6,6.2,-13.7,13.8,-13.7c7.6,0,13.7,6.1,13.7,13.7c0,7.6,-6.1,13.8,-13.7,13.8c-7.6,0,-13.8,-6.2,-13.8,-13.8Z" class="g8_5" />
</g>
<g clip-path="url(#c55_5)">
<path d="M1179.7,866c1.3,-7.5,8.4,-12.5,15.9,-11.1c7.5,1.3,12.5,8.4,11.1,15.9c-1.3,7.5,-8.4,12.5,-15.9,11.1c-7.5,-1.3,-12.5,-8.4,-11.1,-15.9Z" class="g8_5" />
</g>
<g clip-path="url(#c56_5)">
<path d="M1180.3,863.7c2.6,-7.1,10.5,-10.8,17.6,-8.2c7.1,2.6,10.8,10.5,8.2,17.6c-2.6,7.1,-10.5,10.8,-17.6,8.2c-7.1,-2.6,-10.8,-10.5,-8.2,-17.6Z" class="g8_5" />
</g>
<g clip-path="url(#c57_5)">
<path d="M1181.3,861.5c3.8,-6.5,12.2,-8.8,18.8,-5c6.5,3.8,8.8,12.2,5,18.8c-3.8,6.6,-12.2,8.8,-18.8,5c-6.6,-3.8,-8.8,-12.2,-5,-18.8Z" class="g8_5" />
</g>
<g clip-path="url(#c58_5)">
<path d="M1182.7,859.6c4.8,-5.9,13.5,-6.6,19.3,-1.7c5.9,4.9,6.6,13.5,1.7,19.3c-4.9,5.9,-13.5,6.6,-19.3,1.7c-5.9,-4.8,-6.6,-13.5,-1.7,-19.3Z" class="g8_5" />
</g>
<g clip-path="url(#c59_5)">
<path d="M1184.4,857.9c5.8,-4.9,14.4,-4.2,19.3,1.7c4.9,5.8,4.2,14.5,-1.7,19.3c-5.8,4.9,-14.5,4.2,-19.3,-1.7c-4.9,-5.8,-4.2,-14.4,1.7,-19.3Z" class="g8_5" />
</g>
<g clip-path="url(#c60_5)">
<path d="M1186.3,856.5c6.6,-3.8,15,-1.5,18.8,5c3.8,6.6,1.5,15,-5,18.8c-6.6,3.8,-15,1.6,-18.8,-5c-3.8,-6.6,-1.6,-15,5,-18.8Z" class="g8_5" />
</g>
<g clip-path="url(#c61_5)">
<path d="M1188.5,855.5c7.1,-2.6,15,1.1,17.6,8.2c2.6,7.1,-1.1,15,-8.2,17.6c-7.1,2.6,-15,-1.1,-17.6,-8.2c-2.6,-7.1,1.1,-15,8.2,-17.6Z" class="g8_5" />
</g>
<g clip-path="url(#c62_5)">
<path d="M1190.8,854.9c7.5,-1.4,14.6,3.6,15.9,11.1c1.4,7.5,-3.6,14.6,-11.1,15.9c-7.5,1.4,-14.6,-3.6,-15.9,-11.1c-1.4,-7.5,3.6,-14.6,11.1,-15.9Z" class="g8_5" />
</g>
<g clip-path="url(#c63_5)">
<path d="M1193.2,854.7c7.6,0,13.7,6.1,13.7,13.7c0,7.6,-6.1,13.8,-13.7,13.8c-7.6,0,-13.8,-6.2,-13.8,-13.8c0,-7.6,6.2,-13.7,13.8,-13.7Z" class="g8_5" />
</g>
<g clip-path="url(#c64_5)">
<path d="M1195.6,854.9c7.5,1.3,12.5,8.4,11.1,15.9c-1.3,7.5,-8.4,12.5,-15.9,11.1c-7.5,-1.3,-12.5,-8.4,-11.1,-15.9c1.3,-7.5,8.4,-12.5,15.9,-11.1Z" class="g8_5" />
</g>
<g clip-path="url(#c65_5)">
<path d="M1197.9,855.5c7.1,2.6,10.8,10.5,8.2,17.6c-2.6,7.1,-10.5,10.8,-17.6,8.2c-7.1,-2.6,-10.8,-10.5,-8.2,-17.6c2.6,-7.1,10.5,-10.8,17.6,-8.2Z" class="g8_5" />
</g>
<g clip-path="url(#c66_5)">
<path d="M1200.1,856.5c6.5,3.8,8.8,12.2,5,18.8c-3.8,6.6,-12.2,8.8,-18.8,5c-6.6,-3.8,-8.8,-12.2,-5,-18.8c3.8,-6.5,12.2,-8.8,18.8,-5Z" class="g8_5" />
</g>
<g clip-path="url(#c67_5)">
<path d="M1202,857.9c5.9,4.9,6.6,13.5,1.7,19.3c-4.9,5.9,-13.5,6.6,-19.3,1.7c-5.9,-4.8,-6.6,-13.5,-1.7,-19.3c4.8,-5.9,13.5,-6.6,19.3,-1.7Z" class="g8_5" />
</g>
<g clip-path="url(#c68_5)">
<path d="M1203.7,859.6c4.9,5.8,4.1,14.5,-1.7,19.3c-5.8,4.9,-14.5,4.2,-19.3,-1.7c-4.9,-5.8,-4.2,-14.4,1.7,-19.3c5.8,-4.9,14.4,-4.2,19.3,1.7Z" class="g8_5" />
</g>
<g clip-path="url(#c69_5)">
<path d="M1205.1,861.5c3.8,6.6,1.5,15,-5,18.8c-6.6,3.8,-15,1.6,-18.8,-5c-3.8,-6.6,-1.6,-15,5,-18.8c6.6,-3.8,15,-1.5,18.8,5Z" class="g8_5" />
</g>
<g clip-path="url(#c70_5)">
<path d="M1206.1,863.7c2.6,7.1,-1.1,15,-8.2,17.6c-7.1,2.6,-15,-1.1,-17.6,-8.2c-2.6,-7.1,1.1,-15,8.2,-17.6c7.1,-2.6,15,1.1,17.6,8.2Z" class="g8_5" />
</g>
<g clip-path="url(#c71_5)">
<path d="M1206.7,866c1.4,7.5,-3.6,14.6,-11.1,15.9c-7.5,1.4,-14.6,-3.6,-15.9,-11.1c-1.4,-7.5,3.6,-14.6,11.1,-15.9c7.5,-1.4,14.6,3.6,15.9,11.1Z" class="g8_5" />
</g>
</svg>